<svg width="416" height="416" viewBox="0 0 416 416" fill="none" xmlns="http://www.w3.org/2000/svg">
<circle cx="207.537" cy="207.536" r="176" transform="rotate(-175.334 207.537 207.536)" fill="#FEEB4F" stroke="#282828" stroke-width="28"/>
<path d="M192.065 179.202L111.832 104.336C111.832 104.336 118.725 89.2858 148.631 76.0714C178.537 62.857 191.274 68.766 191.274 68.766L192.065 179.202Z" fill="#FFCC05"/>
<path d="M178.984 198.334L69.2511 199.345C69.2511 199.345 63.8785 183.689 76.4511 153.507C89.0237 123.325 102.326 118.833 102.326 118.833L178.984 198.334Z" fill="#FFCC05"/>
<path d="M216.61 235.986L295.923 311.825C295.923 311.825 288.847 326.79 258.782 339.638C228.717 352.487 216.053 346.423 216.053 346.423L216.61 235.986Z" fill="#FFCC05"/>
<path d="M232.121 217.876L341.856 217.221C341.856 217.221 347.177 232.895 334.507 263.035C321.836 293.176 308.519 297.625 308.519 297.625L232.121 217.876Z" fill="#FFCC05"/>
<path d="M232.825 199.52L305.267 117.092C305.267 117.092 320.516 123.533 334.615 153.032C348.715 182.531 343.188 195.438 343.188 195.438L232.825 199.52Z" fill="#FFCC05"/>
<path d="M215.496 179.6L212.905 69.8934C212.905 69.8934 228.483 64.2959 258.842 76.4327C289.202 88.5695 293.885 101.806 293.885 101.806L215.496 179.6Z" fill="#FFCC05"/>
</svg>
